# xmcd
#
# Track frame offsets: 
#        150
#        11792
#        23884
#        34130
#        47603
#        59193
#        67284
#        79891
#        90818
#        105027
#        113952
#        126560
#        132526
#        142563
#        155276
#        168039
#        179885
#        187797
#        198054
#        208671
#        218875
#        228319
#        238527
#        249635
#        260174
#        271459
#        283118
#        293574
#        308971
#        320647
#        331466
#        342905
#
# Disc length: 4731 seconds
#
# Revision: 0
# Processed by: cddbd v1.5.2PL0 Copyright (c) Steve Scherf et al.
# Submitted via: ExactAudioCopyFreeDBPlugin 1.0
#
DISCID=df127920
DTITLE=Various Artist - Starday Custom Series #500 - 675 [CD8]
DYEAR=2017
DGENRE=Country
TTITLE0=Lucky Hill - It's Comin' Home To You
TTITLE1=Bob Cole - Face To Face
TTITLE2=Bob Cole - You Lied
TTITLE3=Tom Crook and The Rock' N' Roll Four - Weekend Boogie
TTITLE4=Tom Crook and The Rock' N' Roll Four - My Heart Don't Lie
TTITLE5=Ernest Painter - No One But You
TTITLE6=Ernest Painter - Whispering Heart
TTITLE7=Billie and Gordon Hamrick with The Low Country Gospel Band - Gon
TTITLE7=na See My Lord Someday
TTITLE8=Billie and Gordon Hamrick with The Low Country Gospel Band - Jes
TTITLE8=us Is The Name
TTITLE9=Bob and Cindy Dean - I'm Knocking On The Door (To Your Heart)
TTITLE10=Bob and Cindy Dean - One Life To Live
TTITLE11=Willie Nelson - No Place For Me
TTITLE12=Willie Nelson - Lumberjack
TTITLE13=The Relative Quartet - A Home For My Soul
TTITLE14=The Relative Quartet - Heavenly City
TTITLE15=Darnell Miller - Waiting Game For Love
TTITLE16=Darnell Miller - Gettin' Out Of The Woods
TTITLE17=Ken Clark and His Merry Mountain Boys - Ho! Ho! Love 'Em Joe
TTITLE18=Ken Clark and His Merry Mountain Boys - Quit Fool (Mamma's Look
TTITLE18=in')
TTITLE19=Mac Odell - It Was Springtime (When I Met You)
TTITLE20=Mac Odell - When I Was Young
TTITLE21=Trice Garner - Tombigbee
TTITLE22=Trice Garner - Lover's Hill
TTITLE23=Zeke Wilson and The Prairie Playboys - My Heart Needs A Vacatio
TTITLE23=n
TTITLE24=Zeke Wilson and The Prairie Playboys - I've Just Said Goodbye (
TTITLE24=To The Only Girl I Love)
TTITLE25=Jimmy Stewart and The Night Hawks - Dream World
TTITLE26=Jimmy Stewart and The Night Hawks - Nuthin' But A Nuthin'
TTITLE27=Slim and Orna Ball - Mother's Prayers (We're Not In Vain)
TTITLE28=Slim and Orna Ball - When I Get Home (I'm Gonna Be Satisfied)
TTITLE29=Mel Price and His Santa Fe Rangers - I Miss You So
TTITLE30=Mel Price and His Santa Fe Rangers - Midnight Whistle Blues
TTITLE31=The Delmar Williams Singers - Lonely Tomorrow
EXTD=
EXTT0=
EXTT1=
EXTT2=
EXTT3=
EXTT4=
EXTT5=
EXTT6=
EXTT7=
EXTT8=
EXTT9=
EXTT10=
EXTT11=
EXTT12=
EXTT13=
EXTT14=
EXTT15=
EXTT16=
EXTT17=
EXTT18=
EXTT19=
EXTT20=
EXTT21=
EXTT22=
EXTT23=
EXTT24=
EXTT25=
EXTT26=
EXTT27=
EXTT28=
EXTT29=
EXTT30=
EXTT31=
PLAYORDER=
